# xmcd
#
# Track frame offsets:
#	150
#	21130
#	38813
#	57644
#	72068
#
# Disc length: 1198 seconds
#
# Revision: 1
# Processed by: cddbd v1.5.1PL2 Copyright (c) Steve Scherf et al.
# Submitted via: audiograbber 1.83.01
#
DISCID=3e04ac05
DTITLE=Crossroads - Crossroads Demo 1999
DYEAR=1999
DGENRE=Blues
TTITLE0=I'm Ready
TTITLE1=Crossroads
TTITLE2=Three Angels
TTITLE3=I Want's To Be Loved
TTITLE4=Sweet Home Chicago
EXTD=Demo disc for Danish blues band Crossroads
EXTT0=
EXTT1=
EXTT2=
EXTT3=
EXTT4=
PLAYORDER=
